<?xml version="1.0" encoding="UTF-8"?>
<svg width="1200" height="630" viewBox="0 0 1200 630" fill="none" xmlns="http://www.w3.org/2000/svg">
  <defs>
    <linearGradient id="bg" x1="0%" y1="0%" x2="100%" y2="100%">
      <stop offset="0%" style="stop-color:#0e2e71;stop-opacity:1" />
      <stop offset="100%" style="stop-color:#1a56db;stop-opacity:1" />
    </linearGradient>
  </defs>
  <rect width="1200" height="630" fill="url(#bg)"/>
  <rect x="0" y="0" width="1200" height="630" fill="url(#bg)" opacity="0.9"/>
  
  <!-- Security Shield Icon -->
  <g transform="translate(100, 150)">
    <path d="M200 50L350 100V200C350 300 300 400 200 450C100 400 50 300 50 200V100L200 50Z" fill="#ffffff" opacity="0.1"/>
    <path d="M200 100L300 140V220C300 280 270 320 200 350C130 320 100 280 100 220V140L200 100Z" fill="#ffffff" opacity="0.2"/>
    <path d="M200 150L250 175V250C250 280 235 300 200 310C165 300 150 280 150 250V175L200 150Z" fill="#ffffff"/>
    <path d="M180 200L200 185L220 200L200 215L180 200Z" fill="#0e2e71"/>
    <path d="M200 230C210 230 220 220 220 210C220 200 210 190 200 190C190 190 180 200 180 210C180 220 190 230 200 230Z" fill="#0e2e71"/>
  </g>
  
  <!-- Text -->
  <text x="600" y="200" text-anchor="middle" fill="#ffffff" font-family="Poppins, sans-serif" font-size="48" font-weight="700">
    VD Electronic Security Services
  </text>
  <text x="600" y="250" text-anchor="middle" fill="#ffffff" font-family="Poppins, sans-serif" font-size="24" font-weight="400">
    Professional CCTV & Biometric Solutions
  </text>
  <text x="600" y="280" text-anchor="middle" fill="#ff9800" font-family="Poppins, sans-serif" font-size="18" font-weight="500">
    Secure Today | Safe Tomorrow
  </text>
  
  <!-- Contact Info -->
  <text x="600" y="350" text-anchor="middle" fill="#ffffff" font-family="Roboto, sans-serif" font-size="16" font-weight="400">
    Phone: 9619243384 | Email: vrindadey2023@gmail.com
  </text>
</svg>
